<svg xmlns="http://www.w3.org/2000/svg" version="1.1" xmlns:xlink="http://www.w3.org/1999/xlink" width="512" height="512" x="0" y="0" viewBox="0 0 512 512" style="enable-background:new 0 0 512 512" xml:space="preserve" class=""><g><path fill="#4deb81" d="M310.332 16.426C202.551 42.172 118.668 142.023 118.668 256s83.883 213.828 191.668 239.574C418.113 469.828 502 369.977 502 256S418.113 42.172 310.332 16.426zm0 0" opacity="1" data-original="#4dbbeb" class=""></path><path fill="#ffffff" d="M367.21 184.79c11.72 11.71 11.72 30.71 0 42.42l-120 120c-5.858 5.86-13.53 8.79-21.21 8.79s-15.352-2.93-21.21-8.79l-60-60c-11.72-11.71-11.72-30.71 0-42.42 11.722-11.72 30.698-11.72 42.42 0L226 283.577l98.79-98.789c11.722-11.719 30.698-11.719 42.42 0zm0 0" opacity="1" data-original="#ffffff" class=""></path><path d="M491.375 157.66c-13.148-30.297-31.855-57.695-55.598-81.437-23.742-23.743-51.14-42.45-81.437-55.598C322.809 6.937 289.723 0 256 0s-66.809 6.938-98.34 20.625C127.363 33.773 99.965 52.48 76.223 76.223c-23.743 23.742-42.45 51.14-55.598 81.437C6.937 189.191 0 222.277 0 256s6.937 66.809 20.625 98.34c13.148 30.297 31.855 57.695 55.598 81.437 23.742 23.743 51.14 42.45 81.437 55.598C189.191 505.063 222.277 512 256 512s66.809-6.938 98.34-20.625c30.297-13.148 57.695-31.855 81.437-55.598 23.743-23.742 42.45-51.14 55.598-81.437C505.063 322.809 512 289.723 512 256s-6.938-66.809-20.625-98.34zM256 492C128.074 492 20 383.926 20 256S128.074 20 256 20s236 108.074 236 236-108.074 236-236 236zm0 0" fill="#000000" opacity="1" data-original="#000000" class=""></path><path d="M451.977 173.805c-10.872-25.258-26.364-48.043-46.051-67.73-19.688-19.684-42.473-35.18-67.73-46.048C311.948 48.727 284.292 43 256 43c-38.46 0-78.555 13.133-115.945 37.98-4.602 3.06-5.852 9.266-2.793 13.864 3.054 4.601 9.261 5.851 13.863 2.793C185.223 74.977 221.488 63 256 63c104.617 0 193 88.383 193 193s-88.383 193-193 193S63 360.617 63 256c0-34.504 11.977-70.77 34.629-104.879 3.055-4.598 1.805-10.805-2.797-13.86-4.602-3.058-10.805-1.804-13.863 2.798C56.129 177.453 43 217.547 43 256c0 28.293 5.727 55.95 17.023 82.195 10.872 25.258 26.364 48.043 46.051 67.73 19.688 19.684 42.473 35.18 67.73 46.048C200.052 463.273 227.708 469 256 469s55.95-5.727 82.195-17.023c25.258-10.872 48.043-26.364 67.73-46.051 19.684-19.688 35.18-42.473 46.048-67.73C463.273 311.948 469 284.292 469 256s-5.727-55.95-17.023-82.195zm0 0" fill="#000000" opacity="1" data-original="#000000" class=""></path><path d="m137.719 294.281 60 60C205.277 361.84 215.32 366 226 366s20.723-4.16 28.281-11.719l119.996-119.996C381.836 226.73 386 216.688 386 206s-4.164-20.73-11.719-28.281C366.723 170.16 356.68 166 346 166s-20.723 4.16-28.281 11.719L226 269.438l-31.719-31.72C186.723 230.16 176.68 226 166 226s-20.723 4.16-28.277 11.715C130.164 245.27 126 255.312 126 266s4.164 20.73 11.719 28.281zm14.14-42.422C155.641 248.082 160.66 246 166 246s10.36 2.082 14.14 5.86L226 297.722l105.86-105.864c3.78-3.777 8.8-5.859 14.14-5.859s10.36 2.082 14.14 5.863c3.778 3.778 5.86 8.797 5.86 14.137s-2.082 10.36-5.86 14.14l-120 120c-3.78 3.778-8.8 5.86-14.14 5.86s-10.36-2.082-14.14-5.86l-60-60.003C148.081 276.359 146 271.34 146 266s2.082-10.36 5.86-14.14zM115 105c-5.52 0-10 4.48-10 10s4.48 10 10 10 10-4.48 10-10-4.48-10-10-10zm0 0" fill="#000000" opacity="1" data-original="#000000" class=""></path></g></svg>