<?xml version="1.0"?>
<svg xmlns="http://www.w3.org/2000/svg" id="object" viewBox="0 0 32 32" width="512" height="512"><path d="M2,7A1,1,0,0,0,3,6V3H6A1,1,0,0,0,6,1H2A1,1,0,0,0,1,2V6A1,1,0,0,0,2,7Z"/><path d="M26,3h3V6a1,1,0,0,0,2,0V2a1,1,0,0,0-1-1H26a1,1,0,0,0,0,2Z"/><path d="M6,29H3V26a1,1,0,0,0-2,0v4a1,1,0,0,0,1,1H6a1,1,0,0,0,0-2Z"/><path d="M30,25a1,1,0,0,0-1,1v3H26a1,1,0,0,0,0,2h4a1,1,0,0,0,1-1V26A1,1,0,0,0,30,25Z"/><path d="M30.89,16.46a1,1,0,0,0,0-.92A17,17,0,0,0,16,6,17,17,0,0,0,1.11,15.54a1,1,0,0,0,0,.92A17,17,0,0,0,16,26,17,17,0,0,0,30.89,16.46ZM16,24A14.94,14.94,0,0,1,3.14,16,14.94,14.94,0,0,1,16,8a14.94,14.94,0,0,1,12.86,8A14.94,14.94,0,0,1,16,24Z"/><path d="M16,10a6,6,0,1,0,6,6A6,6,0,0,0,16,10Zm0,10a4,4,0,1,1,4-4A4,4,0,0,1,16,20Z"/></svg>
