<svg xmlns="http://www.w3.org/2000/svg" version="1.1" xmlns:xlink="http://www.w3.org/1999/xlink" width="512" height="512" x="0" y="0" viewBox="0 0 32 32" style="enable-background:new 0 0 512 512" xml:space="preserve" class=""><g><path fill="#1a1e32" d="M16.966 29.985c-.484 0-.972-.117-1.425-.353-5.216-2.705-8.194-6.722-9.505-8.875C3.131 15.985 2.521 11.283 2.52 8.18c0-1.046.538-2 1.44-2.55l2.485-1.512a2.975 2.975 0 0 1 2.269-.352c.778.189 1.437.67 1.853 1.355l1.56 2.562a3.004 3.004 0 0 1-1.003 4.123l-1.287.783c-.386.235-.574.707-.445 1.121a17.51 17.51 0 0 0 4.44 7.298.984.984 0 0 0 1.205.124l1.286-.783a3.003 3.003 0 0 1 4.123 1.002l1.56 2.563c.417.685.542 1.49.352 2.269a2.982 2.982 0 0 1-1.356 1.854l-2.484 1.512a2.979 2.979 0 0 1-1.551.436zM8.002 5.681a.99.99 0 0 0-.518.146L5 7.339a.981.981 0 0 0-.48.841c0 2.848.56 7.161 3.224 11.538 1.203 1.975 3.935 5.659 8.719 8.14.334.174.714.168 1.015-.017l2.484-1.512a.997.997 0 0 0 .335-1.374l-1.56-2.562a1 1 0 0 0-1.375-.334l-1.287.783a2.983 2.983 0 0 1-3.648-.407 19.51 19.51 0 0 1-4.947-8.132 2.977 2.977 0 0 1 1.317-3.42l1.287-.783c.471-.287.621-.903.334-1.375L8.859 6.163a.993.993 0 0 0-.856-.481z" opacity="1" data-original="#06474d" class=""></path><g fill="#3cacb6"><path d="M20.422 17.611a1 1 0 0 1-.99-1.153 4.005 4.005 0 0 0-3.343-4.563 1 1 0 1 1 .306-1.976 6.007 6.007 0 0 1 5.014 6.845 1 1 0 0 1-.987.848z" fill="#20a1ec" opacity="1" data-original="#3cacb6" class=""></path><path d="M24.375 18.222a1 1 0 0 1-.99-1.153 7.946 7.946 0 0 0-1.453-5.948 7.95 7.95 0 0 0-5.233-3.179 1 1 0 1 1 .305-1.977c2.64.408 4.963 1.818 6.542 3.973s2.224 4.795 1.816 7.435a1 1 0 0 1-.987.848z" fill="#20a1ec" opacity="1" data-original="#3cacb6" class=""></path><path d="M28.328 18.831a1 1 0 0 1-.99-1.153c1.009-6.54-3.49-12.681-10.029-13.69a1 1 0 1 1 .305-1.977c7.629 1.178 12.878 8.342 11.701 15.971a1 1 0 0 1-.987.848z" fill="#20a1ec" opacity="1" data-original="#3cacb6" class=""></path></g></g></svg>