<?xml version="1.0" encoding="UTF-8"?>
<svg id="Layer_2" data-name="Layer 2" xmlns="http://www.w3.org/2000/svg" viewBox="0 0 154.79 59.07">
  <defs>
    <style>
      .cls-1 {
        fill: #e5b331;
      }

      .cls-1, .cls-2 {
        stroke-width: 0px;
      }

      .cls-2 {
        fill: #20a1ec;
      }
    </style>
  </defs>
  <g id="Layer_1-2" data-name="Layer 1">
    <g>
      <g>
        <path class="cls-1" d="M55.29,58.82h-5.34v-8.34h2.34v6.21h3.01v2.13h0s-.01,0-.01,0Z"/>
        <path class="cls-1" d="M70.82,58.82h-2.33l-.49-1.27h-3.47l-.48,1.27h-2.29l3.38-8.34h2.2l3.47,8.34h0s.01,0,.01,0ZM67.23,55.63l-1-2.51-.96,2.51h1.96Z"/>
        <path class="cls-1" d="M85.15,55.79c0,1-.34,1.79-1.03,2.39-.69.6-1.58.89-2.7.89s-2-.29-2.7-.89-1.03-1.39-1.03-2.39v-5.32h2.34v5.04c0,.43.13.79.38,1.03s.6.38,1.03.38.77-.13,1.02-.38.36-.6.36-1.03v-5.04h2.34v5.32h0s-.02,0-.02,0Z"/>
        <path class="cls-1" d="M100.56,58.82h-2.5c-1.5-2.26-2.32-3.52-2.47-3.76s-.39-.63-.69-1.18v4.93h-2.27v-8.34h2.51c1.49,2.24,2.33,3.53,2.55,3.87s.42.69.61,1.05v-4.92h2.27v8.34h0s-.01.01-.01.01Z"/>
        <path class="cls-1" d="M108.05,50.48h2.94c1.46,0,2.6.38,3.43,1.12.83.74,1.24,1.76,1.24,3.04s-.41,2.3-1.23,3.06c-.83.76-2.02,1.14-3.57,1.14h-2.81v-8.34h0ZM110.38,56.78h.47c.8,0,1.39-.18,1.79-.54.39-.36.59-.9.59-1.64,0-.67-.21-1.2-.63-1.56-.42-.38-1.01-.56-1.76-.56h-.46v4.29h0s0,.01,0,.01Z"/>
        <path class="cls-1" d="M129.84,58.82h-2.74l-1.83-2.81h-.19v2.81h-2.34v-8.34h3.41c1.04,0,1.84.23,2.39.71.55.47.82,1.14.82,1.99,0,1.23-.56,2.06-1.7,2.48l2.19,3.14h-.01ZM125.07,54.16h.84c.34,0,.61-.08.8-.23.19-.16.28-.39.28-.67,0-.6-.38-.89-1.12-.89h-.8v1.8h0Z"/>
        <path class="cls-1" d="M144.53,50.48l-3.02,4.78v3.56h-2.34v-3.56l-3.02-4.78h2.6l1.59,2.7,1.62-2.7h2.59s-.01,0-.01,0Z"/>
      </g>
      <g>
        <path class="cls-2" d="M89.14,44.28h-13.9l-8.49-12.98-8.43,12.98h-13.9l15.38-22.27L45.03.41h14.15l7.63,12.18L74.44.41h14.15l-14.77,21.59,15.38,22.27v-.06l-.06.06Z"/>
        <path class="cls-2" d="M106.92,44.28h-12.3V.47h12.3v43.8-.06.06Z"/>
        <path class="cls-2" d="M114.8.47h15.44c7.69,0,13.66,1.97,18.03,5.91,4.37,3.88,6.52,9.23,6.52,15.93s-2.15,12.06-6.46,16.06c-4.37,4-10.58,5.97-18.76,5.97h-14.77V.47ZM127.04,33.57h2.46c4.18,0,7.32-.92,9.41-2.83,2.03-1.91,3.08-4.74,3.08-8.61,0-3.51-1.11-6.28-3.32-8.18-2.21-1.97-5.29-2.95-9.23-2.95h-2.4v22.52-.06.12Z"/>
      </g>
      <g>
        <path class="cls-1" d="M22.72,0C10.17,0,0,10.17,0,22.72s10.17,22.72,22.72,22.72,22.72-10.17,22.72-22.72S35.26,0,22.72,0ZM22.72,41.87c-10.57,0-19.15-8.57-19.15-19.15S12.14,3.57,22.72,3.57s19.15,8.57,19.15,19.15-8.57,19.15-19.15,19.15Z"/>
        <path class="cls-2" d="M40.69,21.17c-1.59,0-3.07-.44-4.33-1.2-.51,2.1-2.4,3.65-4.65,3.65-1.64,0-3.09-.83-3.95-2.09-1.18.37-2.44.57-3.75.57-2.41,0-4.65-.68-6.56-1.86-1.53,3.43-4.96,5.83-8.96,5.83-1.4,0-2.73-.29-3.93-.82,1.24,8.93,8.9,15.81,18.17,15.81,10.13,0,18.35-8.21,18.35-18.35,0-.52-.02-1.04-.07-1.55-.1,0-.21,0-.31,0Z"/>
        <path class="cls-1" d="M38.8,25.07c-.92,8.47-7.97,15.09-16.61,15.36.18,0,.36,0,.54,0,8.89,0,16.22-6.73,17.16-15.37h-1.08Z"/>
        <path class="cls-2" d="M11.22,21.42c0,1.35-1.1,2.45-2.45,2.45s-2.45-1.1-2.45-2.45,1.1-2.45,2.45-2.45,2.45,1.1,2.45,2.45Z"/>
        <path class="cls-1" d="M8.78,19.28c-.05,0-.1,0-.16,0,1.11.08,1.98,1,1.98,2.13s-.87,2.05-1.98,2.13c.05,0,.1,0,.16,0,1.18,0,2.14-.96,2.14-2.14s-.96-2.14-2.14-2.14Z"/>
        <path class="cls-2" d="M14.58,18.69c0,.71-.57,1.28-1.28,1.28s-1.28-.57-1.28-1.28.57-1.28,1.28-1.28,1.28.57,1.28,1.28Z"/>
        <path class="cls-1" d="M13.3,17.57s-.05,0-.08,0c.58.04,1.03.52,1.03,1.11s-.46,1.07-1.03,1.11c.03,0,.05,0,.08,0,.62,0,1.12-.5,1.12-1.12s-.5-1.12-1.12-1.12Z"/>
        <path class="cls-2" d="M11.81,15.04c0,.92-.74,1.66-1.66,1.66s-1.66-.74-1.66-1.66.74-1.66,1.66-1.66,1.66.74,1.66,1.66Z"/>
        <path class="cls-1" d="M10.15,13.59s-.07,0-.11,0c.75.05,1.34.68,1.34,1.45s-.59,1.39-1.34,1.45c.03,0,.07,0,.11,0,.8,0,1.45-.65,1.45-1.45s-.65-1.45-1.45-1.45Z"/>
        <path class="cls-2" d="M33.43,20.35c0,.92-.74,1.66-1.66,1.66s-1.66-.74-1.66-1.66.74-1.66,1.66-1.66,1.66.74,1.66,1.66Z"/>
        <path class="cls-1" d="M31.77,18.9s-.07,0-.11,0c.75.05,1.34.68,1.34,1.45s-.59,1.39-1.34,1.45c.03,0,.07,0,.11,0,.8,0,1.45-.65,1.45-1.45s-.65-1.45-1.45-1.45Z"/>
        <path class="cls-1" d="M14.42,30.08c-.92,0-1.66.74-1.66,1.66s.74,1.66,1.66,1.66,1.66-.74,1.66-1.66-.74-1.66-1.66-1.66ZM14.42,33.19s-.07,0-.11,0c.75-.05,1.34-.68,1.34-1.45s-.59-1.39-1.34-1.45c.04,0,.07,0,.11,0,.8,0,1.45.65,1.45,1.45s-.65,1.45-1.45,1.45Z"/>
        <path class="cls-1" d="M27.13,28.13c-1.46,0-2.63,1.18-2.63,2.63s1.18,2.63,2.63,2.63,2.63-1.18,2.63-2.63-1.18-2.63-2.63-2.63ZM27.13,33.07c-.06,0-.11,0-.17,0,1.19-.09,2.13-1.08,2.13-2.29s-.94-2.21-2.13-2.29c.06,0,.11,0,.17,0,1.27,0,2.3,1.03,2.3,2.3s-1.03,2.3-2.3,2.3Z"/>
      </g>
    </g>
  </g>
</svg>