<?xml version="1.0" encoding="UTF-8"?>
<svg id="Layer_2" data-name="Layer 2" xmlns="http://www.w3.org/2000/svg" viewBox="0 0 45.44 45.44">
  <defs>
    <style>
      .cls-1 {
        fill: #e5b331;
      }

      .cls-1, .cls-2 {
        stroke-width: 0px;
      }

      .cls-2 {
        fill: #20a1ec;
      }
    </style>
  </defs>
  <g id="Layer_1-2" data-name="Layer 1">
    <g>
      <path class="cls-1" d="M22.72,0C10.17,0,0,10.17,0,22.72s10.17,22.72,22.72,22.72,22.72-10.17,22.72-22.72S35.26,0,22.72,0ZM22.72,41.87c-10.57,0-19.15-8.57-19.15-19.15S12.14,3.57,22.72,3.57s19.15,8.57,19.15,19.15-8.57,19.15-19.15,19.15Z"/>
      <path class="cls-2" d="M40.69,21.17c-1.59,0-3.07-.44-4.33-1.2-.51,2.1-2.4,3.65-4.65,3.65-1.64,0-3.09-.83-3.95-2.09-1.18.37-2.44.57-3.75.57-2.41,0-4.65-.68-6.56-1.86-1.53,3.43-4.96,5.83-8.96,5.83-1.4,0-2.73-.29-3.93-.82,1.24,8.93,8.9,15.81,18.17,15.81,10.13,0,18.35-8.21,18.35-18.35,0-.52-.02-1.04-.07-1.55-.1,0-.21,0-.31,0Z"/>
      <path class="cls-1" d="M38.8,25.07c-.92,8.47-7.97,15.09-16.61,15.36.18,0,.36,0,.54,0,8.89,0,16.22-6.73,17.16-15.37h-1.08Z"/>
      <path class="cls-2" d="M11.22,21.42c0,1.35-1.1,2.45-2.45,2.45s-2.45-1.1-2.45-2.45,1.1-2.45,2.45-2.45,2.45,1.1,2.45,2.45Z"/>
      <path class="cls-1" d="M8.78,19.28c-.05,0-.1,0-.16,0,1.11.08,1.98,1,1.98,2.13s-.87,2.05-1.98,2.13c.05,0,.1,0,.16,0,1.18,0,2.14-.96,2.14-2.14s-.96-2.14-2.14-2.14Z"/>
      <path class="cls-2" d="M14.58,18.69c0,.71-.57,1.28-1.28,1.28s-1.28-.57-1.28-1.28.57-1.28,1.28-1.28,1.28.57,1.28,1.28Z"/>
      <path class="cls-1" d="M13.3,17.57s-.05,0-.08,0c.58.04,1.03.52,1.03,1.11s-.46,1.07-1.03,1.11c.03,0,.05,0,.08,0,.62,0,1.12-.5,1.12-1.12s-.5-1.12-1.12-1.12Z"/>
      <path class="cls-2" d="M11.81,15.04c0,.92-.74,1.66-1.66,1.66s-1.66-.74-1.66-1.66.74-1.66,1.66-1.66,1.66.74,1.66,1.66Z"/>
      <path class="cls-1" d="M10.15,13.59s-.07,0-.11,0c.75.05,1.34.68,1.34,1.45s-.59,1.39-1.34,1.45c.03,0,.07,0,.11,0,.8,0,1.45-.65,1.45-1.45s-.65-1.45-1.45-1.45Z"/>
      <path class="cls-2" d="M33.43,20.35c0,.92-.74,1.66-1.66,1.66s-1.66-.74-1.66-1.66.74-1.66,1.66-1.66,1.66.74,1.66,1.66Z"/>
      <path class="cls-1" d="M31.77,18.9s-.07,0-.11,0c.75.05,1.34.68,1.34,1.45s-.59,1.39-1.34,1.45c.03,0,.07,0,.11,0,.8,0,1.45-.65,1.45-1.45s-.65-1.45-1.45-1.45Z"/>
      <path class="cls-1" d="M14.42,30.08c-.92,0-1.66.74-1.66,1.66s.74,1.66,1.66,1.66,1.66-.74,1.66-1.66-.74-1.66-1.66-1.66ZM14.42,33.19s-.07,0-.11,0c.75-.05,1.34-.68,1.34-1.45s-.59-1.39-1.34-1.45c.04,0,.07,0,.11,0,.8,0,1.45.65,1.45,1.45s-.65,1.45-1.45,1.45Z"/>
      <path class="cls-1" d="M27.13,28.13c-1.46,0-2.63,1.18-2.63,2.63s1.18,2.63,2.63,2.63,2.63-1.18,2.63-2.63-1.18-2.63-2.63-2.63ZM27.13,33.07c-.06,0-.11,0-.17,0,1.19-.09,2.13-1.08,2.13-2.29s-.94-2.21-2.13-2.29c.06,0,.11,0,.17,0,1.27,0,2.3,1.03,2.3,2.3s-1.03,2.3-2.3,2.3Z"/>
    </g>
  </g>
</svg>