<?xml version="1.0" encoding="UTF-8" standalone="no"?>
<!-- Created with Inkscape (http://www.inkscape.org/) -->

<svg
   version="1.1"
   id="svg141"
   xml:space="preserve"
   width="682.66669"
   height="682.66669"
   viewBox="0 0 682.66669 682.66669"
   xmlns="http://www.w3.org/2000/svg"
   xmlns:svg="http://www.w3.org/2000/svg"><defs
     id="defs145"><clipPath
       clipPathUnits="userSpaceOnUse"
       id="clipPath155"><path
         d="M 0,512 H 512 V 0 H 0 Z"
         id="path153" /></clipPath></defs><g
     id="g147"
     transform="matrix(1.3333333,0,0,-1.3333333,0,682.66667)"><g
       id="g149"><g
         id="g151"
         clip-path="url(#clipPath155)"><g
           id="g157"
           transform="translate(389.1699,240.7607)"><path
             d="m 0,0 v -210.4 c 0,-12.07 -9.78,-21.85 -21.85,-21.85 h -183.49 c -12.07,0 -21.85,9.78 -21.85,21.85 V 21.86 H -21.85 C -9.78,21.86 0,12.07 0,0 Z"
             style="fill:none;stroke:#000000;stroke-width:15;stroke-linecap:round;stroke-linejoin:round;stroke-miterlimit:10;stroke-dasharray:none;stroke-opacity:1"
             id="path159" /></g><g
           id="g161"
           transform="translate(473.4902,231.7104)"><path
             d="M 0,0 H -49.461"
             style="fill:none;stroke:#000000;stroke-width:15;stroke-linecap:round;stroke-linejoin:round;stroke-miterlimit:10;stroke-dasharray:none;stroke-opacity:1"
             id="path163" /></g><g
           id="g165"
           transform="translate(161.98,231.7104)"><path
             d="m 0,0 h -48.96 -74.51"
             style="fill:none;stroke:#000000;stroke-width:15;stroke-linecap:round;stroke-linejoin:round;stroke-miterlimit:10;stroke-dasharray:none;stroke-opacity:1"
             id="path167" /></g><g
           id="g169"
           transform="translate(340.2202,262.6206)"><path
             d="m 0,0 h -178.24 -27.1 c -12.07,0 -21.86,-9.79 -21.86,-21.86 v -138.63 c 0,-12.07 9.79,-21.85 21.86,-21.85 h 27.1"
             style="fill:none;stroke:#000000;stroke-width:15;stroke-linecap:round;stroke-linejoin:round;stroke-miterlimit:10;stroke-dasharray:none;stroke-opacity:1"
             id="path171" /></g><g
           id="g173"
           transform="translate(206.9521,342.3447)"><path
             d="m 0,0 -162.186,-97.616 c -3.744,-2.253 -6.034,-6.304 -6.034,-10.674 v 0 c 0,-6.88 -5.577,-12.458 -12.458,-12.458 h -6.316 c -6.881,0 -12.458,5.578 -12.458,12.458 v 0 c 0,14.582 7.234,28.215 19.309,36.391 L -1.44,49.083 c 14.904,10.089 32.489,15.482 50.488,15.482 17.998,0 35.584,-5.393 50.488,-15.482 L 278.239,-71.899 c 12.075,-8.176 19.309,-21.809 19.309,-36.391 v 0 c 0,-6.88 -5.578,-12.458 -12.459,-12.458 h -6.316 c -6.88,0 -12.458,5.578 -12.458,12.458 v 0 c 0,4.37 -2.29,8.421 -6.034,10.674 L 98.096,0 C 84.075,8.439 68.019,12.898 51.654,12.898 H 46.441 C 30.077,12.898 14.021,8.439 0,0 Z"
             style="fill:none;stroke:#000000;stroke-width:15;stroke-linecap:round;stroke-linejoin:round;stroke-miterlimit:10;stroke-dasharray:none;stroke-opacity:1"
             id="path175" /></g><g
           id="g177"
           transform="translate(230.4873,489.457)"><path
             d="M 0,0 C 5.554,8.745 15.479,14.44 26.701,14.009 42.027,13.422 54.677,1.112 55.65,-14.194 56.449,-26.751 49.568,-37.791 39.252,-43.07 30.684,-47.455 25.513,-56.502 25.513,-66.127 v -16.42"
             style="fill:none;stroke:#000000;stroke-width:15;stroke-linecap:round;stroke-linejoin:round;stroke-miterlimit:10;stroke-dasharray:none;stroke-opacity:1"
             id="path179" /></g><g
           id="g181"
           transform="translate(351.9595,110.0107)"><path
             d="M 0,0 H 37.21 V -29.73 H -189.979 V 0 h 153.07"
             style="fill:none;stroke:#000000;stroke-width:15;stroke-linecap:round;stroke-linejoin:round;stroke-miterlimit:10;stroke-dasharray:none;stroke-opacity:1"
             id="path183" /></g><g
           id="g185"
           transform="translate(200.5244,45.1626)"><path
             d="M 0,0 H 27.405"
             style="fill:none;stroke:#000000;stroke-width:15;stroke-linecap:round;stroke-linejoin:round;stroke-miterlimit:10;stroke-dasharray:none;stroke-opacity:1"
             id="path187" /></g></g></g></g></svg>
