<?xml version="1.0" encoding="UTF-8" standalone="no"?>
<!-- Created with Inkscape (http://www.inkscape.org/) -->

<svg
   version="1.1"
   id="svg9"
   xml:space="preserve"
   width="682.66669"
   height="682.66669"
   viewBox="0 0 682.66669 682.66669"
   xmlns="http://www.w3.org/2000/svg"
   xmlns:svg="http://www.w3.org/2000/svg"><defs
     id="defs13"><clipPath
       clipPathUnits="userSpaceOnUse"
       id="clipPath23"><path
         d="M 0,512 H 512 V 0 H 0 Z"
         id="path21" /></clipPath></defs><g
     id="g15"
     transform="matrix(1.3333333,0,0,-1.3333333,0,682.66667)"><g
       id="g17"><g
         id="g19"
         clip-path="url(#clipPath23)"><g
           id="g25"
           transform="translate(84.3457,75.918)"><path
             d="m 0,0 h -76.844 c 0,17.155 13.907,31.062 31.062,31.062 H 342.497 V 15.531 C 342.497,6.954 335.543,0 326.965,0 H 31.874"
             style="fill:none;stroke:#000000;stroke-width:15;stroke-linecap:round;stroke-linejoin:round;stroke-miterlimit:10;stroke-dasharray:none;stroke-opacity:1"
             id="path27" /></g><g
           id="g29"
           transform="translate(399.4424,324.416)"><path
             d="m 0,0 h 50.963 c 3.126,0 5.872,-2.072 6.731,-5.077 l 45.887,-160.603 c 0.87,-3.045 -0.414,-6.296 -3.13,-7.925 L 27.4,-217.436 h -388.278 l 43.278,75.737 C -267.53,-54.076 -174.347,0 -73.427,0 h 40.74"
             style="fill:none;stroke:#000000;stroke-width:15;stroke-linecap:round;stroke-linejoin:round;stroke-miterlimit:10;stroke-dasharray:none;stroke-opacity:1"
             id="path31" /></g><g
           id="g33"
           transform="translate(450.4058,324.416)"><path
             d="m 0,0 c 3.125,0 5.872,-2.072 6.73,-5.077 l 11.433,-40.011 c 6.481,14.026 20.398,14.026 20.398,14.026 H 54.092 V 0 Z"
             style="fill:none;stroke:#000000;stroke-width:15;stroke-linecap:round;stroke-linejoin:round;stroke-miterlimit:10;stroke-dasharray:none;stroke-opacity:1"
             id="path35" /></g><g
           id="g37"
           transform="translate(238.9136,255.8408)"><path
             d="m 0,0 c 35.293,24.139 77.459,37.513 121.284,37.513 h 26.909 c 3.212,0 6.012,-2.186 6.791,-5.303 l 27.562,-110.249 c 1.105,-4.418 -2.237,-8.697 -6.791,-8.697 H -31.403 c -19.738,0 -31.005,22.534 -19.162,38.324 7.137,9.516 14.988,18.343 23.451,26.429"
             style="fill:none;stroke:#000000;stroke-width:15;stroke-linecap:round;stroke-linejoin:round;stroke-miterlimit:10;stroke-dasharray:none;stroke-opacity:1"
             id="path39" /></g><g
           id="g41"
           transform="translate(318.1245,200.167)"><path
             d="m 0,0 h -31.062 c -17.155,0 -31.063,-13.907 -31.063,-31.062 v 0 h 93.187 v 0 C 31.062,-13.907 17.155,0 0,0 Z"
             style="fill:none;stroke:#000000;stroke-width:15;stroke-linecap:round;stroke-linejoin:round;stroke-miterlimit:10;stroke-dasharray:none;stroke-opacity:1"
             id="path43" /></g><g
           id="g45"
           transform="translate(100.689,138.0425)"><path
             d="M 0,0 H 46.593"
             style="fill:none;stroke:#000000;stroke-width:15;stroke-linecap:round;stroke-linejoin:round;stroke-miterlimit:10;stroke-dasharray:none;stroke-opacity:1"
             id="path47" /></g><g
           id="g49"
           transform="translate(198.6421,293.9175)"><path
             d="M 0,0 C -10.413,10.826 -26.868,15.445 -42.483,9.199 -57.225,3.303 -66.891,-10.975 -66.891,-26.852 v -20.305 l 0.879,0.619 C -46.307,-27.878 -24.054,-12.222 0,0 Z"
             style="fill:none;stroke:#000000;stroke-width:15;stroke-linecap:round;stroke-linejoin:round;stroke-miterlimit:10;stroke-dasharray:none;stroke-opacity:1"
             id="path51" /></g><g
           id="g53"
           transform="translate(117.2388,387.0493)"><path
             d="M 0,0 C 7.854,7.853 10.208,19.122 7.065,29.024 5.719,33.266 3.364,37.256 0,40.62 c -11.217,11.217 -29.403,11.217 -40.62,0 -1.958,-1.957 -3.573,-4.128 -4.848,-6.436 -10.99,6.379 -25.305,4.864 -34.716,-4.546 -9.992,-9.993 -11.083,-25.516 -3.272,-36.717 -4.419,-1.317 -8.585,-3.721 -12.075,-7.212 -11.217,-11.217 -11.217,-29.403 0,-40.62 3.364,-3.364 7.355,-5.719 11.596,-7.065 9.902,-3.143 21.171,-0.788 29.024,7.065"
             style="fill:none;stroke:#000000;stroke-width:15;stroke-linecap:round;stroke-linejoin:round;stroke-miterlimit:10;stroke-dasharray:none;stroke-opacity:1"
             id="path55" /></g><g
           id="g57"
           transform="translate(111.748,315.665)"><path
             d="M 0,0 -21.964,21.964"
             style="fill:none;stroke:#000000;stroke-width:15;stroke-linecap:round;stroke-linejoin:round;stroke-miterlimit:10;stroke-dasharray:none;stroke-opacity:1"
             id="path59" /></g><g
           id="g61"
           transform="translate(133.7124,337.6294)"><path
             d="M 0,0 -21.964,21.964"
             style="fill:none;stroke:#000000;stroke-width:15;stroke-linecap:round;stroke-linejoin:round;stroke-miterlimit:10;stroke-dasharray:none;stroke-opacity:1"
             id="path63" /></g></g></g></g></svg>
