<svg xmlns="http://www.w3.org/2000/svg" version="1.1" xmlns:xlink="http://www.w3.org/1999/xlink" width="512" height="512" x="0" y="0" viewBox="0 0 512 512" style="enable-background:new 0 0 512 512" xml:space="preserve" class=""><g><g fill="#1c5080"><path d="M475.093 390.861h-28.375v-14.004h28.336c.278-.221 1.594-1.49 2.896-6.56l11.507-45.406c-.047-.191-.279-.877-1.398-2.271l-16.154-20.094a7.012 7.012 0 0 1-1.384-2.895l-6.747-30.926c-.732-3.364-3.567-14.333-9.316-14.333h-89.489v-14.004h89.489c6.527 0 18.195 3.294 22.998 25.355l6.396 29.312 15.125 18.813c1.456 1.813 5.876 7.321 4.078 14.39l-11.535 45.519c-3.631 14.139-10.936 17.103-16.425 17.103zm-94.395 0h-53.716v-14.004h53.716z" fill="#06113c" opacity="1" data-original="#1c5080" class=""></path><path d="M488.443 364.386h-11.622c-11.316 0-20.523-9.207-20.523-20.523s9.207-20.551 20.523-20.551h18.482v14.004h-18.482c-3.595 0-6.52 2.937-6.52 6.547 0 3.534 2.985 6.52 6.52 6.52h11.622v14.004zM341.042 390.861h-79.144v-14.004h79.144c3.298 0 5.306-3.112 5.585-6.188l14.599-159.285c.118-1.301-.541-2.324-1.115-2.952-1.107-1.212-2.82-1.965-4.47-1.965h-67.578v-14.004h67.578a20.102 20.102 0 0 1 14.808 6.523c3.497 3.827 5.174 8.681 4.723 13.667l-14.599 159.286c-.978 10.783-9.373 18.921-19.53 18.921zm-145.389 0h-19.049c-7.241 0-14.234-3.129-19.187-8.583-4.669-5.143-6.884-11.655-6.236-18.341l8.929-93.252 13.939 1.334-8.93 93.26c-.354 3.657 1.519 6.322 2.666 7.587 2.27 2.499 5.565 3.991 8.818 3.991h19.049v14.004zM477.247 304.66h-56.354c-4.659 0-9.194-2.154-12.442-5.909-3.327-3.846-4.82-8.909-4.096-13.893l5.524-38.952 13.865 1.967-5.528 38.977c-.185 1.269.347 2.188.824 2.74.635.732 1.405 1.066 1.853 1.066h56.354zM409.1 424.5c-6.159 0-12.106-1.558-17.448-4.646-9.193-5.314-15.361-14.443-17.367-25.707-1.928-10.82.251-22.383 6.136-32.558 6.503-11.286 16.903-19.549 28.534-22.668 9.639-2.589 19.422-1.423 27.548 3.273 9.193 5.314 15.366 14.441 17.381 25.701 1.937 10.825-.237 22.391-6.122 32.564-5.881 10.185-14.815 17.855-25.154 21.596-4.512 1.633-9.064 2.443-13.507 2.443zm9.957-72.938c-2.104 0-4.272.293-6.475.884-8.07 2.165-15.372 8.048-20.033 16.142l-.007.011c-4.232 7.319-5.82 15.521-4.472 23.094 1.27 7.13 5.03 12.826 10.589 16.039 5.558 3.211 12.368 3.624 19.184 1.158 7.239-2.62 13.56-8.102 17.794-15.435 4.233-7.319 5.816-15.519 4.462-23.092-1.276-7.132-5.042-12.829-10.604-16.045-3.168-1.831-6.703-2.756-10.438-2.756z" fill="#06113c" opacity="1" data-original="#1c5080" class=""></path><path d="M412.215 401.308c-2.944 0-5.867-.723-8.524-2.247-8.893-5.172-11.46-17.426-5.761-27.337l.012-.021c5.749-9.922 17.65-13.83 26.534-8.706 8.88 5.164 11.448 17.418 5.747 27.33-4.009 6.972-11.07 10.98-18.008 10.98zm-2.151-22.594c-1.991 3.472-1.267 7.117.631 8.221 1.872 1.075 5.396-.121 7.39-3.589 1.998-3.475 1.274-7.126-.625-8.23-1.865-1.077-5.378.126-7.396 3.599zM201.07 287.352c-18.502 0-36.053-6.607-50.183-19.05-17.713-15.612-28.319-38.626-29.869-64.805-1.532-25.889 5.985-51.877 21.17-73.179 16.43-23.05 40.304-37.932 65.5-40.831 21.788-2.503 42.819 4.083 59.237 18.553 0 0 0 .002.002.002 36.245 31.975 40.145 93.86 8.693 137.952-16.427 23.045-40.3 37.929-65.496 40.834-3.036.35-6.058.523-9.055.523zm15.601-184.378c-2.444 0-4.905.141-7.382.426-21.265 2.446-41.565 15.221-55.698 35.048-27.415 38.459-24.475 91.998 6.554 119.347 13.402 11.803 30.585 17.171 48.377 15.123 21.266-2.451 41.566-15.228 55.698-35.053 27.409-38.426 24.469-91.952-6.556-119.32-11.538-10.169-25.877-15.57-40.993-15.57z" fill="#06113c" opacity="1" data-original="#1c5080" class=""></path></g><path fill="#20a1ec" d="M216.524 145.297a7 7 0 0 1-6.929-8.061l2.211-14.456a7 7 0 1 1 13.841 2.117l-2.211 14.456a7.002 7.002 0 0 1-6.912 5.944zM265.848 203.096c-.322 0-.649-.022-.978-.068l-12.784-1.786a7.002 7.002 0 1 1 1.937-13.869l12.784 1.786a7.002 7.002 0 0 1-.96 13.937zM199.092 259.505a7 7 0 0 1-6.929-8.061l2.211-14.456a7 7 0 1 1 13.841 2.117l-2.211 14.456a7.002 7.002 0 0 1-6.912 5.944zM164.765 189.007c-.322 0-.648-.021-.978-.067l-12.785-1.786a7.002 7.002 0 0 1-5.966-7.903 6.994 6.994 0 0 1 7.903-5.966l12.785 1.786a7.002 7.002 0 0 1-.96 13.936zM190.98 210.465a7.001 7.001 0 0 1-4.213-12.598l15.323-11.523 3.819-24.903c.587-3.822 4.171-6.441 7.982-5.859a7.002 7.002 0 0 1 5.859 7.982l-4.252 27.723a6.995 6.995 0 0 1-2.713 4.534l-17.604 13.238a6.972 6.972 0 0 1-4.203 1.406z" opacity="1" data-original="#eb4b17" class=""></path><path fill="#06113c" d="M223.73 427.273c-6.029 0-11.978-1.472-17.371-4.579-18.567-10.732-23.606-36.88-11.244-58.292 5.871-10.178 14.798-17.841 25.136-21.579 10.767-3.89 21.756-3.107 30.95 2.206 8.121 4.68 14.022 12.573 16.607 22.22 3.119 11.64 1.169 24.777-5.349 36.047-8.769 15.185-23.99 23.978-38.729 23.978zm9.984-72.869c-2.835 0-5.769.527-8.702 1.588-7.235 2.616-13.545 8.088-17.767 15.406l-.002.003c-8.506 14.729-5.763 32.299 6.114 39.165 11.883 6.846 28.476.444 36.978-14.277 4.673-8.079 6.11-17.341 3.946-25.415-1.639-6.118-5.125-10.861-10.081-13.717-3.167-1.831-6.74-2.753-10.486-2.753z" opacity="1" data-original="#1c5080" class=""></path><path fill="#06113c" d="M226.999 404.149c-3.045 0-6.006-.775-8.633-2.297-3.986-2.298-6.872-6.14-8.117-10.812-1.433-5.374-.552-11.386 2.415-16.495 2.952-5.125 7.723-8.893 13.09-10.337 4.663-1.257 9.43-.679 13.421 1.623 8.889 5.124 11.467 17.384 5.747 27.329-2.951 5.132-7.725 8.902-13.096 10.343a18.599 18.599 0 0 1-4.827.646zm3.596-26.587c-.442 0-.858.076-1.201.168-1.783.48-3.502 1.904-4.598 3.809a.853.853 0 0 1-.018.031c-1.1 1.891-1.474 4.083-.998 5.865.197.741.634 1.74 1.59 2.292.988.572 2.081.451 2.827.252 1.777-.477 3.492-1.897 4.586-3.799 2.003-3.483 1.29-7.126-.603-8.218a3.137 3.137 0 0 0-1.586-.4z" opacity="1" data-original="#1c5080" class=""></path><path fill="#20a1ec" d="M136.268 311.151H33.171a7.002 7.002 0 0 1 0-14.004h103.097a7.002 7.002 0 0 1 0 14.004zM127.026 353.416H89.864a7.002 7.002 0 0 1 0-14.004h37.162a7.002 7.002 0 0 1 0 14.004zM108.346 268.915H16.475a7.002 7.002 0 0 1 0-14.004h91.871a7.002 7.002 0 0 1 0 14.004zM97.659 226.65H49.158a7.002 7.002 0 0 1 0-14.004h48.501a7.002 7.002 0 0 1 0 14.004z" opacity="1" data-original="#eb4b17" class=""></path><path fill="#06113c" d="M358.078 329.35h-82.602a7.002 7.002 0 0 1 0-14.004h82.602a7.002 7.002 0 0 1 0 14.004zM251.609 329.35h-17.688a7.002 7.002 0 0 1 0-14.004h17.688a7.002 7.002 0 0 1 0 14.004z" opacity="1" data-original="#1c5080" class=""></path></g></svg>