<svg xmlns="http://www.w3.org/2000/svg" version="1.1" xmlns:xlink="http://www.w3.org/1999/xlink" width="512" height="512" x="0" y="0" viewBox="0 0 512 512" style="enable-background:new 0 0 512 512" xml:space="preserve" class=""><g><path fill="#e4e4e4" d="M259.76 262.14h-30c-14.89 0-26.96 12.05-26.96 26.91 0 7.43 3.02 14.17 7.9 19.04s11.62 7.88 19.06 7.88c-14.89 0-26.96 12.05-26.96 26.92-.002 14.643 11.668 27.19 26.429 27.44-28.915.608-52.489 25.171-52.229 53.7 0 28.75 22.52 52.92 50.96 54.4h30c-28.44-1.48-50.96-25.65-50.96-54.4-.26-28.53 23.315-53.092 52.23-53.7h-29.446l29.369-.003c-14.725-.292-26.355-12.819-26.354-27.437 0-14.87 12.07-26.92 26.96-26.92-7.44 0-14.18-3.01-19.06-7.88s-7.9-11.61-7.9-19.04c0-14.86 12.07-26.91 26.96-26.91z" opacity="1" data-original="#d4e1f4" class=""></path><g fill="#1ae5be"><path d="m467.028 188.76-97.943-75.41c-13.334-10.266-29.944-15.92-46.772-15.92h-36.432c-3.619-.068-5.75 3.694-4.785 6.961h-33.56V84.522c0-8.114-4.491-15.583-11.722-19.491-3.524-1.905-5.648-4.631-6.495-8.336-.998-4.371-.057-8.925 2.583-12.496 2.478-3.352 6.083-5.361 10.153-5.659 4.008-.297 7.84 1.043 10.767 3.765 2.932 2.725 4.546 6.428 4.546 10.427a5 5 0 1 0 10 0c0-6.71-2.82-13.181-7.737-17.751-4.986-4.634-11.491-6.911-18.305-6.414-6.923.506-13.288 4.037-17.465 9.688-4.376 5.919-5.939 13.452-4.29 20.668 1.482 6.49 5.454 11.645 11.487 14.906 3.995 2.16 6.478 6.258 6.478 10.694v19.869h-38.983c.966-3.266-1.167-7.03-4.785-6.961h-37.287c-16.278 0-32.339 5.479-45.225 15.427l-98.312 75.907c-2.172 1.61-2.588 4.96-.873 7.051l38.877 49.377a5.001 5.001 0 0 0 6.979.869l70.006-53.898-.054 52.951c-2.394-2.115-4.671-4.712-6.745-7.912a5.273 5.273 0 0 0-6.486-1.993 5.273 5.273 0 0 0-3.078 6.04c4.857 21.279-8.911 33.834-17.551 39.424-2.252 1.457-3.164 4.243-2.221 6.771.985 2.644 3.788 4.19 6.53 3.6 6.625-1.434 18.526-3.998 29.707 3.653l-.091 101.94c0 9.735 8.456 17.656 18.85 17.656h32.261v-10h-32.261c-4.273 0-8.85-3.076-8.85-7.651l.082-91.575c.486.72.967 1.464 1.44 2.249a5.249 5.249 0 0 0 6.573 2.143c2.436-1.03 3.715-3.64 3.042-6.208l-.002-.005c-6.625-25.18 9.206-35.687 16.815-40.737 2.332-1.549 3.179-4.64 1.972-7.187-1.155-2.44-3.79-3.729-6.404-3.132-5.913 1.354-14.831 2.285-23.589-1.024l.071-69.166c.135-4.025-4.941-6.526-8.05-3.967l-48.892 37.643-33.256-41.147 69.623-53.756c11.145-8.604 25.035-13.342 39.113-13.342h31.804a53.57 53.57 0 0 0-.037 1.961c0 28.4 23.138 51.505 51.577 51.505s51.576-23.105 51.576-51.505c0-.652-.013-1.306-.037-1.961h30.948c14.633 0 29.077 4.917 40.672 13.844l68.878 53.032-31.769 42.168-50.332-38.861c-3.106-2.564-8.187-.068-8.056 3.958v80.567h10v-70.39l70.339 54.309a5 5 0 0 0 6.984-.864l38.877-49.377c1.717-2.093 1.299-5.447-.878-7.055zM137.527 289.353c-8.938-7.787-18.63-9.858-26.733-9.894 5.546-6.121 10.693-14.667 11.645-25.803 8.624 7.094 18.294 9.383 26.505 9.692-5.581 5.813-10.8 14.182-11.416 26.005zm-64.452-67.575L55.746 235.12l-32.695-41.525 16.777-12.953 33.248 41.136zm166.75-70.882c-21.229 0-38.782-15.97-41.265-36.505h82.528c-2.482 20.535-20.035 36.505-41.264 36.505zm184.411 84.219-16.227-12.529 31.776-42.179 17.136 13.194-32.686 41.514z" fill="#20a1ec" opacity="1" data-original="#1ae5be" class=""></path><path d="M244.218 171.065c-8.673 0-15.729 7.056-15.729 15.729s7.057 15.729 15.729 15.729 15.729-7.056 15.729-15.729-7.057-15.729-15.729-15.729zm0 21.458c-3.159 0-5.729-2.57-5.729-5.729s2.57-5.729 5.729-5.729 5.729 2.57 5.729 5.729-2.57 5.729-5.729 5.729zM244.218 216.874c-8.673 0-15.729 7.056-15.729 15.729s7.057 15.729 15.729 15.729 15.729-7.056 15.729-15.729-7.057-15.729-15.729-15.729zm0 21.459c-3.159 0-5.729-2.57-5.729-5.729s2.57-5.729 5.729-5.729 5.729 2.57 5.729 5.729-2.57 5.729-5.729 5.729z" fill="#20a1ec" opacity="1" data-original="#1ae5be" class=""></path></g><path fill="#06113c" d="M496 473.433h-62.904a32.635 32.635 0 0 0 8.831-22.382c0-11.298-5.908-21.243-14.803-26.917 8.895-5.673 14.803-15.619 14.803-26.917 0-10.375-4.986-19.606-12.688-25.439 13.33-4.871 24.519-14.522 31.308-27.542 7.978-4.393 15.726-2.762 23.064-.006 2.566.959 5.415-.093 6.779-2.513 1.283-2.286.834-5.098-1.095-6.84-5.653-5.101-14.19-16.006-7.838-31.733a5.208 5.208 0 0 0-8.748-5.388c-2.064 2.347-4.214 4.162-6.391 5.551-2.629-11.746-8.811-22.48-17.842-30.742-10.876-9.949-24.934-15.429-39.583-15.429H229.758c-17.624 0-31.963 14.318-31.963 31.917 0 11.298 5.908 21.243 14.803 26.917-8.895 5.673-14.803 15.619-14.803 26.917 0 10.621 5.039 20.067 12.812 25.99-22.504 8.25-38.603 29.861-38.603 55.156a59.652 59.652 0 0 0 26.073 49.399H44.343a5 5 0 1 0 0 10H496a5 5 0 1 0 0-10zm-26.82-160.184c-.178 7.293 1.967 13.459 4.751 18.343-5.502-.44-11.948.329-18.594 4.112.377-7.651-1.858-13.777-4.749-18.512 5.644.312 12.141-.523 18.592-3.943zm-261.385 29.638c0-12.085 9.853-21.917 21.963-21.917h177.915a5 5 0 1 0 0-10H229.758c-12.11 0-21.963-9.832-21.963-21.917s9.853-21.917 21.963-21.917h179.137c23.295 0 43.578 17.159 47.969 39.786-6.353 1.028-12.231-.489-16.152-2.016-2.426-.943-5.142-.079-6.607 2.102-1.547 2.3-1.206 5.321.808 7.18 8.066 7.459 14.545 16.601 7.391 32.844-.699 1.59-.524 3.366.314 4.78-8.482 8.254-19.868 13.153-32.223 13.499l-180.836.021c-12.011-.064-21.763-10.107-21.763-22.446zm203.858 130.546H228.196c-25.695-1.343-46.192-22.987-46.192-49.399s21.219-48.024 47.553-48.7c.039 0 .077.003.116.003v-.006l180.721-.018c11.912.23 21.533 9.965 21.533 21.906 0 12.084-9.853 21.916-21.963 21.916H232.048a5 5 0 1 0 0 10h177.916c12.11 0 21.963 9.832 21.963 21.917 0 11.824-8.957 21.536-20.273 22.382z" opacity="1" data-original="#0635c9" class=""></path></g></svg>