<svg xmlns="http://www.w3.org/2000/svg" version="1.1" xmlns:xlink="http://www.w3.org/1999/xlink" width="512" height="512" x="0" y="0" viewBox="0 0 64 64" style="enable-background:new 0 0 512 512" xml:space="preserve" class=""><g><path fill="#06113c" d="M58 26.25h-1.554A4.722 4.722 0 0 0 57.75 23c0-1.54-.748-2.897-1.887-3.765 1.122-.649 1.887-1.848 1.887-3.235 0-1.225-.59-2.315-1.502-3a3.747 3.747 0 0 0 1.502-3A3.754 3.754 0 0 0 54 6.25H22.18a.75.75 0 0 0 0 1.5H54c1.24 0 2.25 1.01 2.25 2.25s-1.01 2.25-2.25 2.25H14a.75.75 0 0 0 0 1.5h40c1.24 0 2.25 1.01 2.25 2.25s-1.01 2.25-2.25 2.25H13c-2.895 0-5.25-2.355-5.25-5.25S10.105 7.75 13 7.75h5.078a.75.75 0 0 0 0-1.5H13A6.757 6.757 0 0 0 6.25 13a6.749 6.749 0 0 0 2.983 5.599A4.751 4.751 0 0 0 6.25 23c0 1.26.501 2.399 1.304 3.25H6c-1.517 0-2.75 1.233-2.75 2.75S4.483 31.75 6 31.75h52c1.517 0 2.75-1.233 2.75-2.75s-1.233-2.75-2.75-2.75zM7.75 23A3.254 3.254 0 0 1 11 19.75h42c1.792 0 3.25 1.458 3.25 3.25s-1.458 3.25-3.25 3.25H11A3.254 3.254 0 0 1 7.75 23zM58 30.25H6a1.251 1.251 0 0 1 0-2.5h52a1.251 1.251 0 0 1 0 2.5z" opacity="1" data-original="#06113c" class=""></path><g fill="#ff8c32"><path d="M56.684 34.252a.749.749 0 0 0-.802.694l-.33 4.54a.75.75 0 0 0 1.496.108l.33-4.54a.75.75 0 0 0-.694-.802zM56.155 41.417a.752.752 0 0 0-.803.692l-.11 1.47a.75.75 0 0 0 1.496.112l.11-1.47a.75.75 0 0 0-.693-.804zM55.855 45.442a.75.75 0 0 0-.803.692l-.39 5.251c-.2 2.728-2.498 4.865-5.232 4.865H14.57c-2.734 0-5.032-2.137-5.232-4.866l-1.22-16.44a.75.75 0 0 0-1.496.111l1.22 16.44c.257 3.507 3.212 6.255 6.728 6.255h34.86c3.516 0 6.471-2.748 6.728-6.254l.39-5.25a.75.75 0 0 0-.693-.804z" fill="#20a1ec" opacity="1" data-original="#ff8c32" class=""></path><path d="M17 51.75A2.753 2.753 0 0 0 19.75 49V39c0-1.517-1.233-2.75-2.75-2.75s-2.75 1.233-2.75 2.75v10A2.753 2.753 0 0 0 17 51.75zM15.75 39a1.251 1.251 0 0 1 2.5 0v10a1.251 1.251 0 0 1-2.5 0zM27 51.75A2.753 2.753 0 0 0 29.75 49V39c0-1.517-1.233-2.75-2.75-2.75s-2.75 1.233-2.75 2.75v10A2.753 2.753 0 0 0 27 51.75zM25.75 39a1.251 1.251 0 0 1 2.5 0v10a1.251 1.251 0 0 1-2.5 0zM37 51.75A2.753 2.753 0 0 0 39.75 49V39c0-1.517-1.233-2.75-2.75-2.75s-2.75 1.233-2.75 2.75v10A2.753 2.753 0 0 0 37 51.75zM35.75 39a1.251 1.251 0 0 1 2.5 0v10a1.251 1.251 0 0 1-2.5 0zM47 51.75A2.753 2.753 0 0 0 49.75 49V39c0-1.517-1.233-2.75-2.75-2.75s-2.75 1.233-2.75 2.75v10A2.753 2.753 0 0 0 47 51.75zM45.75 39a1.251 1.251 0 0 1 2.5 0v10a1.251 1.251 0 0 1-2.5 0z" fill="#20a1ec" opacity="1" data-original="#ff8c32" class=""></path></g></g></svg>