<svg xmlns="http://www.w3.org/2000/svg" version="1.1" xmlns:xlink="http://www.w3.org/1999/xlink" width="512" height="512" x="0" y="0" viewBox="0 0 30 30" style="enable-background:new 0 0 512 512" xml:space="preserve" class=""><g><g fill="#4eb8ff"><circle cx="11.5" cy="20.5" r=".5" fill="#20a1ec" opacity="1" data-original="#4eb8ff" class=""></circle><circle cx="15.5" cy="19.5" r=".5" fill="#20a1ec" opacity="1" data-original="#4eb8ff" class=""></circle><circle cx="14.5" cy="21.5" r=".5" fill="#20a1ec" opacity="1" data-original="#4eb8ff" class=""></circle><circle cx="18.5" cy="20.5" r=".5" fill="#20a1ec" opacity="1" data-original="#4eb8ff" class=""></circle><path d="m20.5 17.6-1.2.3c-1.4.4-2.9.1-4-.8-1.4-1-3.2-1.4-4.9-1l-.7.2c-.1.4-.2.7-.2 1.1l1.2-.3c1.4-.3 2.9-.1 4 .8 1 .8 2.2 1.2 3.4 1.2.5 0 .9-.1 1.4-.2l.9-.2v-.6c.1-.2.1-.4.1-.5z" fill="#20a1ec" opacity="1" data-original="#4eb8ff" class=""></path></g><g fill="#1237a5"><path d="M24 2H6C4.6 2 3.5 3.1 3.5 4.5v21C3.5 26.9 4.6 28 6 28h18c1.4 0 2.5-1.1 2.5-2.5v-21C26.5 3.1 25.4 2 24 2zm1.5 2.5V8h-5V3H24c.8 0 1.5.7 1.5 1.5zM6 3h13.5v5h-15V4.5C4.5 3.7 5.2 3 6 3zm18 24H6c-.8 0-1.5-.7-1.5-1.5V9h21v16.5c0 .8-.7 1.5-1.5 1.5z" fill="#06113c" opacity="1" data-original="#1237a5" class=""></path><path d="M6 7h5c.3 0 .5-.2.5-.5v-2c0-.3-.2-.5-.5-.5H6c-.3 0-.5.2-.5.5v2c0 .3.2.5.5.5zm.5-2h4v1h-4zM15 7.5c1.1 0 2-.9 2-2s-.9-2-2-2-2 .9-2 2 .9 2 2 2zm0-3c.6 0 1 .4 1 1s-.4 1-1 1-1-.4-1-1 .4-1 1-1zM22 6.5h2c.3 0 .5-.2.5-.5s-.2-.5-.5-.5h-2c-.3 0-.5.2-.5.5s.2.5.5.5zM15 9.5c-4.7 0-8.5 3.8-8.5 8.5s3.8 8.5 8.5 8.5 8.5-3.8 8.5-8.5-3.8-8.5-8.5-8.5zm0 16c-4.1 0-7.5-3.4-7.5-7.5s3.4-7.5 7.5-7.5 7.5 3.4 7.5 7.5-3.4 7.5-7.5 7.5z" fill="#06113c" opacity="1" data-original="#1237a5" class=""></path><path d="M15 11.5c-3.6 0-6.5 2.9-6.5 6.5s2.9 6.5 6.5 6.5 6.5-2.9 6.5-6.5-2.9-6.5-6.5-6.5zm0 12c-3 0-5.5-2.5-5.5-5.5s2.5-5.5 5.5-5.5 5.5 2.5 5.5 5.5-2.5 5.5-5.5 5.5z" fill="#06113c" opacity="1" data-original="#1237a5" class=""></path></g></g></svg>